<svg width="37" height="11" viewBox="0 0 37 11" fill="none" xmlns="http://www.w3.org/2000/svg">
<path fill-rule="evenodd" clip-rule="evenodd" d="M29.3901 0.0793738C29.218 0.154305 29.0767 0.299974 28.802 0.58316L27.3682 1.99103L21.285 7.96413L21.0495 8.19532C20.3881 8.84474 20.8566 9.95516 21.7919 9.95516H29.9029C30.4628 9.95516 30.9168 9.50945 30.9168 8.95964C30.9168 8.40983 30.4628 7.96413 29.9029 7.96413H28.7151C26.2153 7.96413 26.0493 5.98314 27.2812 4.56522L29.309 2.57419C29.577 2.2933 29.716 2.14771 29.886 2.07224C30.069 1.99103 30.2881 1.99103 30.7428 1.99103H35.9861C36.5461 1.99103 37 1.54532 37 0.995516C37 0.445708 36.5461 0 35.9861 0H31.9306H30.2359C29.7893 0 29.5724 0 29.3901 0.0793738ZM6.52 0.759123C6.8911 0.385732 7.39442 0.175963 7.91923 0.175963H14.605C15.4865 0.175963 15.9279 1.24828 15.3046 1.87542C15.1191 2.06211 14.8674 2.16699 14.605 2.16699H8.31343C8.03081 2.16699 7.76169 2.28859 7.57393 2.50113C7.00676 3.14314 7.45972 4.15803 8.31343 4.15803H10.6474C11.5289 4.15803 11.9703 5.23034 11.347 5.85748C11.1615 6.04417 10.9098 6.14906 10.6474 6.14906H4.35579C4.07318 6.14906 3.80406 6.27066 3.6163 6.48319C3.04913 7.1252 3.50208 8.14009 4.35579 8.14009H6.68975C7.57122 8.14009 8.01266 9.2124 7.38937 9.83954C7.20382 10.0262 6.95216 10.1311 6.68975 10.1311H1.98278C0.219843 10.1311 -0.663035 7.98649 0.58355 6.73221L6.52 0.759123ZM20.6256 0.175963H18.9911C18.4725 0.175963 17.975 0.385732 17.6083 0.759122L16.2254 2.16699L14.2697 4.15803L12.3141 6.14906L9.8782 8.629C9.33373 9.18332 9.71934 10.1311 10.4893 10.1311C10.7186 10.1311 10.9384 10.0384 11.1005 9.8734L14.1859 6.73222C14.4797 6.43731 14.6249 6.29154 14.8004 6.21949C14.9719 6.14906 15.1723 6.14906 15.5687 6.14906H18.67H20.3045C20.6713 6.14906 20.8627 6.14906 21.0299 6.08536C21.2124 6.0158 21.366 5.8703 21.6874 5.5659L23.0702 4.15803L25.0259 2.16699L25.253 1.9358C25.8909 1.28638 25.4391 0.175963 24.537 0.175963H20.6256ZM20.912 3.86645C22.5813 2.16699 22.565 2.16699 20.2206 2.16699H19.075C18.8157 2.16699 18.567 2.27188 18.3836 2.45857C17.7676 3.08571 18.2039 4.15803 19.075 4.15803H20.2206C20.574 4.15803 20.7287 4.05314 20.912 3.86645Z" fill="black"/>
</svg>
